PathFileType	4	(X/Y/Z)	Patient4_TMGait_0pt6_02_right_41.trc.trc
DataRate	CameraRate	NumFrames	NumMarkers	Units	OrigDataRate	OrigDataStartFrame	OrigNumFrames
79.545454545455	79.545454545455	5	33	mm	79.545454545455	1	       141
Frame#	Time	Sacral			L.Shoulder			Chest			R.Shoulder			Neck			R.ASIS			L.ASIS			R.Thigh.Superior			R.Thigh.Lateral			R.Thigh.Inferior			R.Patella			L.Thigh.Superior			L.Thigh.Lateral			L.Thigh.Inferior			L.Patella			L.Shank.Superior			L.Shank.Lateral			L.Shank.Inferior			R.Shank.Superior			R.Shank.Lateral			R.Shank.Inferior			R.Heel			R.Midfoot.Superior			R.Midfoot.Lateral			R.Toe			L.Heel			L.Midfoot.Lateral			L.Midfoot.Superior			L.Toe			L.Elbow			L.Wrist			R.Elbow			R.Wrist			
		X1	Y1	Z1	X2	Y2	Z2	X3	Y3	Z3	X4	Y4	Z4	X5	Y5	Z5	X6	Y6	Z6	X7	Y7	Z7	X8	Y8	Z8	X9	Y9	Z9	X10	Y10	Z10	X11	Y11	Z11	X12	Y12	Z12	X13	Y13	Z13	X14	Y14	Z14	X15	Y15	Z15	X16	Y16	Z16	X17	Y17	Z17	X18	Y18	Z18	X19	Y19	Z19	X20	Y20	Z20	X21	Y21	Z21	X22	Y22	Z22	X23	Y23	Z23	X24	Y24	Z24	X25	Y25	Z25	X26	Y26	Z26	X27	Y27	Z27	X28	Y28	Z28	X29	Y29	Z29	X30	Y30	Z30	X31	Y31	Z31	X32	Y32	Z32	X33	Y33	Z33	

1	49.450000000000	835.354732103603	1016.946670716180	477.067938649517	1032.149158824561	1438.331869394123	292.502864934317	1136.146433104262	1358.818522276197	447.688192963650	1064.196470964745	1438.388587963291	623.922995738125	1043.327716829340	1496.876188063965	443.608890701223	1064.290361394159	947.737725959525	589.025834668357	1043.316646925047	962.648381744789	314.049407414174	1142.894693350881	777.162869456001	561.784084791234	1103.133138474955	661.298098008620	643.979417497683	1193.021393717295	618.392105109625	565.244365621151	1209.633712959293	503.017211639321	592.245845160560	1089.601473638173	752.725352897464	343.808446803306	996.324218188955	638.872120611273	291.117613202311	1079.594397854483	559.232683034812	353.570500232706	1078.513837332587	488.997348719535	365.649693410389	1048.366097559328	418.328604287354	359.183500380101	954.758894867070	307.102976379978	309.844980148163	998.975842992574	195.157001339092	383.991608255629	1125.964459243124	434.355384070107	604.480981071367	999.881343457737	411.868565326321	663.603272822329	975.576591146148	301.490173496628	623.764806336458	773.400035394957	267.313428284900	593.654091494227	924.960579816588	177.468178429577	641.160988883111	816.901855878724	199.393849286185	670.541244216094	966.422016044606	56.366113315812	674.542371906081	861.585316281702	42.228373809758	423.394142065546	939.141066096601	37.980743909932	347.079858313695	1022.637443053333	97.059526998772	376.024749941003	1150.882619784257	39.453056746710	353.883642708881	978.819924537415	1094.860427098283	156.477369405035	1143.184023493128	890.328966760539	158.741714302784	1034.136099801459	1087.310448307333	738.788729782967	1136.999366303417	845.856332043167	713.999085474306	
2	49.462571428571	834.131872089213	1017.736723118391	476.250909457494	1033.344331179370	1438.766959058975	291.875476049038	1135.954013899414	1359.202842955261	447.911063614433	1062.876305365126	1438.982383133100	623.645763932579	1043.286912676119	1497.394583885794	443.022511748784	1062.425892521462	948.567320735599	588.714706775400	1042.925821103974	963.628385953020	313.880440009231	1144.090592461304	781.891124087154	561.438602473352	1107.468018118180	665.281448569115	643.841499977596	1197.888095370516	624.359318141217	564.818802793672	1217.673261501190	509.873770492125	591.738328015211	1086.117471630560	751.839041658255	344.158716198528	991.327139603451	639.249903498446	290.885452748613	1072.949980319782	558.566554099486	353.609354804820	1070.743702078099	488.616832092540	365.788741436724	1040.854484563860	418.380344245137	359.137158271983	947.168789946367	307.320278004935	309.611321539905	991.092696129137	195.309312882503	383.939953696603	1136.654287626790	438.691823956481	604.152510463189	1012.183218859795	411.209301410102	664.017082562252	991.977202572854	300.158194605044	623.964997149018	791.408977881860	257.791873804892	595.435108417755	947.207140751596	175.309450919470	642.099707685276	838.337355679879	191.509324347519	671.445817395675	993.512125137754	55.283540318376	673.212740135543	853.545174890769	42.444370114889	423.296009164484	931.149556798608	38.083414431576	347.006072918457	1014.676536606819	97.108791860070	375.914916069286	1142.865040010024	39.426232204801	353.820687923340	984.598823962915	1095.775798055401	154.138919894530	1158.461453636478	900.954532022349	156.689898037895	1021.839679020794	1090.370888049068	740.080400273135	1108.857599946596	844.159165344683	722.752968201581	
3	49.475142857143	832.942849088585	1018.493763174262	475.473766200876	1034.528449276121	1439.167652499066	291.281645995235	1135.766043887510	1359.557193655173	448.156867635912	1061.560229532802	1439.547251593257	623.387279152330	1043.248918125645	1497.879104481542	442.468701640763	1060.622713312757	949.378742862430	588.461118851873	1042.499740180308	964.604801934065	313.745204981975	1145.194079212112	786.499350664135	561.076739169686	1111.663739722323	669.165954352750	643.693716559164	1202.556376520447	630.168213876913	564.367434696027	1225.455372729795	516.610163362335	591.219980390210	1082.679290642752	750.932446083008	344.547750902670	986.357101138450	639.612659750483	290.678314599890	1066.332154962315	557.891383428678	353.677874536000	1063.020557054095	488.243952585812	365.941900616058	1033.391890133486	418.426674629402	359.105493474710	939.631402964348	307.526688421381	309.390765286861	983.272085861732	195.452924966348	383.898043392327	1147.135743870954	442.918671916243	603.851625291169	1024.349185474812	410.389891574156	664.486293781477	1008.314248862396	298.681270918269	624.247183464628	809.442736676538	248.026683794471	597.319070052244	969.411748111340	172.963384519495	643.091436115981	859.813604660520	183.483276441876	672.505163488849	1020.651811238136	54.162221357323	672.104051177365	845.577720806932	42.647431516216	423.205912094143	923.226766426368	38.180481394988	346.937912954565	1006.782873265045	97.159350863758	375.812328107775	1134.918308374147	39.403024636659	353.759946757618	990.283839097805	1096.667149146462	151.874808806770	1173.515715771890	911.643336251983	154.709422336984	1009.592986951415	1093.471812726979	741.371789253509	1081.085869552236	842.801509531269	731.270305156688	
4	49.487714285714	831.819194284719	1019.177475506231	474.778470085214	1035.693575233827	1439.492949781125	290.762842870181	1135.587577937252	1359.845197820268	448.457506842140	1060.259747778743	1440.052295409094	623.174578213218	1043.218250977847	1498.288984095727	441.985572969410	1058.933413179560	950.132488971804	588.320968524670	1042.003308787740	965.549888116072	313.683847572875	1146.096247975215	790.813012717374	560.706716266004	1115.530218864345	672.803317866233	643.553279043649	1206.783925875673	635.595080848174	563.899756415493	1232.670408317278	523.056127374620	590.708971446981	1079.318586157496	749.986202274479	345.005694812182	981.438934495104	639.942622106449	290.517756655470	1059.768353603739	557.195519665867	353.797870886338	1055.390527895636	487.878546194550	366.116550763074	1026.016661650792	418.457430492717	359.098678400696	932.180568488839	307.712314574782	309.193046341357	975.547367556695	195.577370374772	383.871289379322	1157.171092518182	446.903569455295	603.616677613693	1036.271744744143	409.221964725481	665.074518276441	1024.570652087554	296.928336232089	624.672505647256	827.674661316432	237.763637537523	599.371814670430	991.633357403052	170.313379056517	644.163814420807	881.507398912114	175.195535244962	673.819862196273	1047.978087922830	53.088810032028	671.375505052525	837.718312834118	42.826954489094	423.128060647161	915.404353604314	38.265232094485	346.879251369030	998.987459688684	97.208982317571	375.722149701042	1127.075610470856	39.385398140790	353.704918477140	995.803905439537	1097.509183105854	149.757962959798	1188.124415908074	922.492112595858	152.889425420744	997.447094781238	1096.673563698325	742.662915875472	1054.024064938324	842.111924971061	739.324410644841	
5	49.500285714286	830.780446912222	1019.754886870214	474.199503914151	1036.835181647622	1439.705250385713	290.355306282764	1135.422581483013	1360.033938065637	448.843056560234	1058.982050598602	1440.471293104908	623.028461294137	1043.199793906195	1498.587536702348	441.605207335083	1057.391194035061	950.783476753258	588.335467156987	1041.401058238319	966.423744529735	313.733968872760	1146.704035341871	794.671376484486	560.344594741754	1118.894999232884	676.054244606925	643.442514074163	1210.361069394598	640.434467943838	563.437379857384	1239.052878420221	529.058343739243	590.234268370249	1076.055465157434	748.983574906257	345.553365633780	976.586633306590	640.225299222130	290.417814665219	1053.277467888610	556.468918350088	353.979124833420	1047.886164893490	487.516977377913	366.311695146993	1018.748801086312	418.460537051290	359.121722418236	924.829526070773	307.870058120306	309.021960584819	967.925877190093	195.673004194697	383.860913302580	1166.565470475297	450.533014965680	603.487140530283	1047.886372116016	407.539641669075	665.836191338645	1040.772653981089	294.796869888403	625.286642702534	846.336302747718	226.778260629901	601.623267711235	1013.994432987192	167.300502209035	645.344744477767	903.643708105325	166.553789323168	675.452756552614	1075.670180572071	52.190123312912	671.148626279988	829.971463975354	42.975725503362	423.063556267538	907.684520791123	38.331947897736	346.831913092368	991.291916642915	97.255036151433	375.646535904886	1119.339439051340	39.374058724071	353.658986834157	1001.118967328580	1098.278802421426	147.843425200587	1202.121750256594	933.603974007617	151.308501864506	985.433444289950	1100.039520523372	743.956791115792	1027.907282488850	842.343810394514	746.749022660683	
